<svg xmlns="http://www.w3.org/2000/svg" xml:space="preserve" id="Layer_1" x="0" y="0" style="enable-background:new 0 0 694.8 796.9" version="1.1" viewBox="0 0 694.8 796.9">
  <style>
    .st1{fill:#000}@media (prefers-color-scheme:dark){.st1{fill:#fff}}
  </style>
  <path class="st1" d="M61.9 483.6c-2.4-5.6-4.8-11.2-7.2-16.7-7.1-16.5-14.4-32.9-21.3-49.5-1-2.3-1.1-5.6-.4-8 6.3-20.5 11-41.3 8.9-62.9-2.5-26.1-14-46.2-39.2-56.8-1.2-.5-2.6-2.2-2.6-3.4-.3-29.9 2.8-59.2 15.7-86.7 5-10.7 11.5-20.3 20.5-28 1.8-1.6 3.9-2.9 6.5-4.9 0 3.8.1 6.7 0 9.6-.6 16.7.1 33.3 5.1 49.5 9.3 30 29.8 41.4 60 33 8-2.2 15.5-5.9 23.3-8.8 3.8-1.4 5-3.6 5.1-7.8.5-31.7 2.5-63.2 10.6-94.1 4.1-15.7 9.2-31.1 19.1-44.1 4.9-6.5 11.6-11.8 17.7-17.3 1.7-1.6 4.4-2.1 7.5-3.4-.3 4.5-.5 8.2-.7 12-2 34.2-1.7 68.3 6.5 101.8 5.5 22.3 16.6 40.9 34.9 55 16.6 12.8 32.3 14 49.9 2.7 8.7-5.7 16.5-12.9 24.5-19.7 1.5-1.3 2-4.1 2.3-6.3 3.2-24.3 6-48.6 9.4-72.8 6.6-47 12.7-94 23.9-140.2.9-3.9 2.3-7.6 3.5-11.4.4-1.1 1-2.1 2.1-4.2 1.4 3.7 2.9 6.4 3.5 9.3 4.7 22.1 10.3 44.1 13.7 66.4 7.7 50.7 14.4 101.5 21.4 152.3.5 3.8 1.6 6.9 4.8 9.3 8.1 6.1 15.6 13.1 24.1 18.5 15.3 9.6 30.6 8.5 45.3-2 21.3-15.2 33.1-36.3 38.6-61.5 7-31.9 7.2-64.1 5.4-96.5-.2-4-.5-7.9-.8-12.3 7.3 1.8 12.6 5.7 17.3 10.5 11.3 11.4 18 25.5 23 40.4 9.2 27.2 12.4 55.5 14 84 .5 8.5.4 17 .9 25.5.1 1.5.9 3.8 2.1 4.4 13.2 6.9 26.9 12.4 42.1 13 17.6.7 30.4-7.2 38.7-22.5 6.9-12.9 9.5-27 10.2-41.4.5-9.9.1-19.9.1-31.1 3.6 2.9 6.6 4.9 9.1 7.4 13.2 12.9 20.8 29.1 25.9 46.6 6.2 21.3 8.1 43.1 7.8 65.2 0 1.3-1.3 3.5-2.5 3.9-29 9.9-47.6 35.5-46.9 72.6.3 16.3 3.8 32 8.6 47.5.6 1.8.4 3.8.5 5.8 0 .6-.5 1.2-.7 1.8-9.6 22.3-19.3 44.5-28.9 66.8h-.8v-5.5c.3-17.2-.3-34.2-3.8-51.2-2.8-13.5-10.8-20.7-23.7-23.8-18.3-4.4-36.9-4.4-55.6-4.6-8.9-.1-14.2 2.6-18 10.9-4.1 9.1-9.7 17.4-14.7 26.1-.8 1.4-1.7 2.7-2.9 4.7-3.7-14.2-10-26.3-17.6-37.9-4.1-6.3-9.6-8.8-16.7-9.1-14.2-.6-27.9 2.7-41 7.4-19.5 7.1-38.7 15.2-57.9 23-1.9.8-3.7 2.8-4.7 4.7-7.2 12.9-14.2 26-21.2 39-.8 1.4-1.6 2.9-2.7 4.8-7.7-14.2-15.3-27.8-22.4-41.7-2.1-4.1-5-6.6-9.2-8.4-24.2-10.3-48.6-20.3-74.5-25.3-7.9-1.5-16.2-1.6-24.3-1.6-5.6 0-10.1 2.9-12.9 8.1-6.4 12-12.8 24-19.2 35.9-5.8-10.1-12.4-20.8-18-31.9-3.2-6.2-6.9-9.2-14.1-8.7-16.4 1.2-33 .7-49.3 2.7-23.9 2.9-31.6 11.1-34.3 35.2-1.5 13.7-1.5 27.6-2.2 41.4-.1 1.7 0 3.5 0 5.2-.6 0-.9 0-1.2.1zM383 312.2c-.2-1.1-.4-3.6-1.1-6-5.1-17.2-26.3-27.7-44-22-17.5 5.7-26.7 20.3-23 37.2 4.1 18.2 16.8 29.7 31.9 39 1 .6 3.3.1 4.3-.7 6.8-5.6 14-10.8 20-17.2 7.5-7.9 11.5-17.8 11.9-30.3zm-10.2 402.6V638c0-17.8 9.8-27.1 27.5-26.3 2.8.1 5.6.6 8.5.9 1.4 4 .7 6-4 6-9.9 0-12.9 2.9-12.9 12.8-.2 41.2-.1 82.3-.3 123.5 0 1.9-1.1 3.8-1.7 5.7-2-1.1-4.1-2.1-6.1-3.2-.4-.2-.7-.7-1-1.1-14-17.4-27.9-34.8-41.9-52.3-9.9-12.4-19.8-24.7-29.7-37.1-1-1.3-2.1-2.4-3.8-4.4-.1 2.5-.3 4.1-.3 5.7v67c0 1.7 0 3.3.2 5 1 10.4 2.8 12.1 13.3 12.7 2.2.1 4.9 0 4.1 3.2-.3 1.2-2.7 2.5-4.2 2.5-14.8.2-29.7.1-44.5.1-2.2 0-4.4.2-4.4-3.2.1-3.4 2.4-3 4.6-3h3c7.4-.4 9.9-2.6 10.3-9.9.4-6.8.3-13.7.3-20.5 0-23.3-.3-46.7.2-70 .2-10.1-6.6-15.3-15-15.5-.7 0-1.5.2-2-.1-1.1-.9-2.1-2-3.1-3 1-1 2-2.8 3.1-2.9 10.3-.2 20.7-.3 31 0 1.7.1 3.6 2 4.8 3.6 19.8 25.4 39.4 50.8 59.1 76.2 1.2 1.6 2.5 3.1 3.7 4.7.5-.1.9-.2 1.2-.3zM59.5 689c25.6 24.9 50.6 49.3 75.7 73.7 5.7 5.5 14.8 6.6 22.4 3 1.9-.9 3.7-2.3 5.6-3.2.7-.3 1.9-.1 2.6.4.3.2.3 1.6 0 2.2-3.2 5.5-7 10.5-13.7 11.3-6.9.8-14.1 1.8-20.9.8-5.3-.8-10.6-3.8-15-7.1-5.3-4-9.7-9.1-14.3-13.9-16.9-17.3-33.7-34.7-50.5-52-1.1-1.2-2.1-2.5-4-4.8-.3 2.7-.5 3.9-.5 5.1 0 11.7-.1 23.3.1 35 .1 9.8 2.9 12.5 12.8 13.5 1.5.1 3.8 1.6 4 2.8.6 3.4-2.3 2.9-4.4 2.9h-44c-2 0-4.6.8-4.7-2.8 0-3.4 2.5-2.9 4.6-3 9.5-.5 12.3-3 12.3-12.5.2-30.5.2-61 0-91.5-.1-9.2-3.2-12-12.5-12.3-2.3-.1-4.9 0-4.2-3.2.3-1.2 2.6-2.8 4-2.8 15-.2 30-.2 45 0 1.4 0 2.7 1.9 4 2.9-1.3 1-2.6 2.8-4 2.9-10.1.8-12.8 3.2-12.9 13.1-.2 12.3 0 24.5 0 37.4 1.1-.7 1.7-1 2.1-1.4 12.8-12.7 25.6-25.3 38.2-38.2 1.8-1.9 2.9-5.3 2.8-7.9-.1-1.1-4.3-1.8-6.5-3-1.4-.7-2.5-1.9-3.7-2.9 1.3-1 2.6-3 3.9-3 11.2-.2 22.3-.2 33.5 0 1.3 0 2.5 1.8 3.7 2.7-1.1 1.1-2.2 3-3.3 3.1-4.3.2-6.9 2.5-9.5 5.6-3.1 3.7-6.6 7-10.1 10.4C85.8 664 73.5 675.7 59.5 689zm469.7-64.1h4.1c.3.5.6 1 .7 1.4 1 12.1 2 24.2 2.8 36.4.1 1.3-1.4 2.7-2.2 4.1-1.2-1.1-2.9-1.9-3.5-3.2-2-4.2-3.2-8.8-5.4-12.8-11.2-20.6-39.2-23.2-54.2-5-9.2 11.2-12.3 24.6-13.1 38.6-.9 16.1 1.3 31.8 9.8 45.7 3.5 5.6 8.4 10.8 13.7 14.8 10.9 8.2 22.6 6.1 33.8-.1 1.1-.6 2.1-2.5 2.2-3.9.2-12.7.2-25.3 0-38-.2-8.6-3.3-11.4-11.8-12.1-1.5-.1-3.8-1.5-4.1-2.7-.8-3.2 1.9-3.2 4.2-3.2 12.5 0 25-.1 37.5.1 1.4 0 2.8 1.5 4.1 2.4-1.2 1.1-2.3 2.9-3.7 3.3-5.6 1.4-8.1 4.2-8.1 10.2v72.5c0 24.2-21.1 27.8-35 20.2-3.2-1.7-6-4.3-8.6-6.8-.9-.8-.7-2.7-1-4.1 1.4.2 3.1 0 4.1.7 6.6 4.6 13.3 5.2 18.4.7 1.9-1.7 3.7-4.6 3.9-7 .5-6.9.2-13.9.2-20.9-6.1.9-11.9 2.4-17.8 2.6-30.3 1-52.3-15.2-59.8-44.6-6.7-26-1.4-50 15.8-70.8 15.8-19 42.4-24 64.3-12.7 6.1 3 7.2 2.4 8.7-5.8zm126.5 10.8c1.6-6.3 3.1-12 4.7-17.9 3.8-1.3 5.1.4 5 4.4-.1 14.5 0 29-.2 43.5 0 1.5-1.2 4-2.5 4.4-3.1 1.2-3.3-1.9-3.7-3.8-2.9-13.6-10.9-22.7-24-26.9-9.6-3.1-18.2.3-23.2 8.8-4.9 8.1-4 17.3 2.8 24.3 3.3 3.4 7.1 6.6 11 9.4 9.9 7.1 20 13.7 29.9 20.8 9 6.5 14.9 15.2 16.8 26.2 2.6 15.4-1.3 28.9-13.2 39.3-11.3 10-24.6 10.7-38.5 6.6-4.8-1.4-9.4-3.5-14.1-4.9-4.8-1.5-6-.6-6.6 4.3-.4 3.6-.8 7.3-1.2 11.1-3.5 1.2-5.2.4-5.2-3.7.1-16.2.1-32.3 0-48.5 0-3.5 1.4-4.5 4.9-3.6 1.4 5.3 2.5 10.8 4.4 16 4.9 14 21 23.4 34.9 20.6 13.1-2.6 20.5-15.4 16.4-28.1-2.1-6.4-6.2-11.3-11.6-15.2-11-7.8-22.1-15.4-33-23.5-8.2-6.1-14.2-14.2-16.1-24.5-2.9-15.7.7-29.7 13.6-39.9 12.1-9.5 25.5-9.1 39.1-3.1 2.9 1.2 5.8 2.3 9.6 3.9zM205.9 758.6c-7.8 0-15.7.1-23.5-.1-1.4 0-2.8-1.8-4.1-2.7 1.4-1 2.7-2.7 4.2-2.8 11.2-.9 13.5-2.7 13.6-14 .2-30.3.1-60.6-.1-90.9-.1-8.4-3.6-11.3-12.2-11.5-.8 0-1.9.3-2.4-.1-1.1-.8-2-2-3-3.1 1.1-1 2.1-2.7 3.2-2.7 16.7-.2 33.3-.2 50 0 1 0 2 1.9 3 2.9-1 1-1.9 2.4-3.1 2.9-1.3.5-3 .1-4.5.2-6 .4-9.1 3.1-10 9.1-.4 3-.7 6-.7 8.9-.1 26.7 0 53.3 0 80v3c.3 12.2 2.3 14.2 14.5 15.4 1.3.1 3.3 1.6 3.6 2.8.6 2.9-1.8 2.9-3.9 2.9-8.3-.2-16.5-.2-24.6-.2zM607 514.2c6.7 0 13.4-.2 20.1.2 1.2.1 2.4 2.1 3.4 3.3 10.5 13.5 21 27.1 31.5 40.7 1 1.3 2.1 2.6 4 4.9.2-2.8.3-4.4.3-6.1v-38.5c.1-11.6 7-17.3 18.5-15.3.9.2 1.6 1.2 2.4 1.8-.7.6-1.3 1.4-2.1 1.6-7.9 2.1-8.2 2.4-8.2 10.8V589c-.4.3-.8.5-1.2.8-1.3-1.1-2.8-2.1-3.9-3.4-13.2-16.3-26.3-32.7-39.4-49.1-1.1-1.4-2.2-2.7-4.4-3.7v19.3c0 7.5-.1 15 .1 22.5.2 5.9.1 9.5 8.3 9.5.7 0 1.4.6 3.4 1.6-2.3.8-3.5 1.6-4.7 1.6-8 .1-16 .1-24 0-1.2 0-2.4-1.1-3.5-1.7 1.3-.7 2.5-1.9 3.8-1.9 4.4 0 6.5-1.9 6.5-6.3.1-17.8.3-35.6.2-53.5 0-4.4-3.2-6.7-7.5-7.3-1.4-.2-2.8-.9-4.2-1.4.4-.5.5-1.2.6-1.8zM29.4 532.1v45.1c0 4.7 1.9 7.6 7.1 7.6 1.1 0 2.2.6 3.3 1v1.4c-1.3.3-2.5.9-3.8 1-7.8.1-15.7.1-23.5 0-1.3 0-2.5-1.3-3.7-2 1.2-.6 2.4-1.6 3.6-1.6 4.6.1 6.7-2 6.7-6.6 0-17.7.3-35.3.1-53 0-4.4-3.1-6.7-7.4-7.5-1.5-.2-2.9-.9-4.3-1.3.1-.6.2-1.3.3-1.9 6.8 0 13.6-.2 20.4.2 1.2.1 2.3 2.2 3.3 3.5 10.5 13.5 21 27.1 31.5 40.7 1 1.3 2.1 2.5 4.1 4.9v-6.7c0-12.8.2-25.7 0-38.5-.2-12.2 7.8-16.3 18.9-14.9.7.1 1.4 1 2.1 1.6-.6.6-1.2 1.5-1.9 1.8-8.2 2.5-8.3 2.5-8.4 11.1v71.3c-.5.2-1.1.5-1.6.7-5.9-5.3-10.2-12.1-15.3-18.2-5.3-6.4-10.4-13-15.6-19.5-4.8-6.4-9.9-12.7-15.9-20.2zm161 54.4c1.1-.8 1.5-1.4 2-1.5 8.1-2.1 8.2-2.3 8.2-10.6v-47c0-8-.2-8.1-8-10.1-.7-.2-1.2-.9-1.8-1.5 5.1-3.5 19.4-2.2 21.4 1.6 3.9-.7 7.8-1.8 11.8-2.1 10-.9 17.9 4.8 20.2 14 2.2 8.9-2.2 17.4-11.1 21.6-1.3.6-2.7 1.2-4.2 2 7.9 11.9 15.2 23.9 23.5 35.1 3.6 4.8 9.2 8.1 13.6 11.9-5.5 2.1-17.2-1.5-22.7-8.2-4.7-5.8-8.8-12.1-13-18.3-3.4-4.9-6.9-9.8-9.9-15-2-3.4-4.3-4.8-8.4-3.4 0 8.4-.2 17 .1 25.6.2 3.9 3.7 4.1 6.8 4.5.7.1 1.4 1 2.1 1.6-.7.6-1.3 1.7-2 1.7-8.8.1-17.7 0-26.5-.1-.5-.3-1-1-2.1-1.8zm21.1-36.2c5.3-1.2 9.7-1.6 13.5-3.3 7-3.1 9.3-11.4 5.8-18.8-3-6.5-9.6-8.4-17-4.9-1 .5-2.2 1.8-2.3 2.7-.1 7.6 0 15.3 0 24.3zm331.3 4.6c0 8.2-.1 16.3 0 24.5 0 3.8 2.5 5.1 5.9 5.4 1.1.1 2.1 1 3.2 1.6-1.1.6-2.3 1.7-3.4 1.8-7.7.2-15.3.1-23 0-1.2 0-2.4-.5-3.5-.8-.1-.4-.1-.9-.2-1.3 1-.4 2-1.3 3.1-1.3 5.4 0 6.8-3.4 6.8-7.9v-49.5c0-8.1-.3-8.3-8-10.2-.7-.2-1.2-.9-1.9-1.4 4.9-3.5 19.3-2.3 21.4 1.6 3.9-.7 7.8-1.8 11.7-2.1 10-.9 18 4.7 20.3 13.9 2.2 8.9-2.1 17.5-11.1 21.6-1.3.6-2.7 1.2-4.3 2 8 12 15.4 24.1 23.8 35.5 3.5 4.7 9.1 7.8 13.4 11.5-5.1 2.1-16.8-1.4-22.4-7.7-3.6-4.1-6.6-8.7-9.7-13.3-4.6-6.7-9.3-13.4-13.6-20.4-1.9-3.4-4.2-4.9-8.5-3.5zm-.3-4.7c5.2-1.2 9.6-1.5 13.4-3.2 7-3.1 9.4-11.3 5.9-18.7-3-6.5-9.4-8.5-16.9-4.9-1.1.5-2.3 2-2.4 3.1-.1 7.4 0 14.8 0 23.7zM136.2 512c10.7.6 18.3 4.7 24.1 11.6 12.5 14.9 12.9 36.4 1.1 51.8-10 13.1-35 20.2-50.1.6-12-15.5-12-38.1-.1-51.8.4-.5.8-1.1 1.4-1.5 7.5-5.3 16-8.6 23.6-10.7zm-12.4 11.7c-1.9 2.2-3.7 3.6-4.5 5.4-6.1 15.2-6.8 30.5 1.7 45.1 7.2 12.3 24.2 11.5 30.7-1.3 7.4-14.6 7.1-29.5 0-44.1-3.6-7.5-12.9-11.5-20.2-9.1-1.3.4-3.4 2.2-3.2 3 .3 1.7 1.5 3.6 2.9 4.7.9.6 2.9-.6 4.2-.2 1.5.5 3.3 1.5 3.9 2.8.4.7-1 3-2.1 3.7-3.7 2.4-8.3 1-10.6-3.1-1-1.9-1.6-3.9-2.8-6.9zm369.9-9.7c.4 5.1.8 9.4.9 13.7 0 1.2-1 2.4-1.5 3.6-.8-.9-1.8-1.7-2.2-2.7-2.8-8.1-3.9-9.1-12.5-9.1-6.5-.1-12.9 0-19.6 0v27c6.7 0 13.1.2 19.6-.1 4.1-.2 5.2-3.5 6-6.9.3-1.1 1.2-2 1.9-3 .6 1.1 1.6 2.3 1.6 3.4.1 7.5.1 14.9.1 22.4-.5.2-1 .5-1.6.7-.8-1.3-2.1-2.5-2.3-3.9-.6-4.7-3.3-6.8-7.7-6.9-5.8-.2-11.6 0-17.7 0 0 9.4-.1 18.3.2 27.3 0 1.1 2.2 3.1 3.5 3.2 7 .2 14 .3 20.9-.3 6-.5 7.5-3.5 5.4-9.3-.5-1.4-1.1-2.7-1.8-4.4 4-1.6 6.6-1.2 8 3.3 1.6 5.2 3.6 10.2 5.6 15.8-1.9.2-3.2.5-4.5.5h-54.9c-.7 0-1.4.2-2-.1-.9-.4-1.7-1.1-2.5-1.7.7-.5 1.3-1.4 2.1-1.6 8-2.1 8-2.1 8-10.3v-21.3c-2.2-3-7.7 1.2-7.3-4.1.1-1.3 4.2-2.3 7.2-3.8 0-7 .2-15.1-.1-23.2-.2-4.1-3.6-4.5-7-4.8-1-.1-1.9-1.1-2.9-1.7.9-.5 1.8-1.5 2.7-1.5 18.1-.2 36-.2 54.4-.2zm-119.2 1.3c-8.3 2.6-8.7 3-8.9 12-.1 6.2 0 12.3 0 18.5 0 .7.1 1.3.3 2.3h29c0-8.8.6-17.7-.4-26.3-.3-2.5-4.8-4.6-7-6.6h25.1c-2.7 1.6-6.1 2.6-7.4 4.8-1.4 2.5-1.1 6.1-1.2 9.2-.1 6.1 0 12.3 0 18 2 2.9 8-1.4 7.8 5-2.7.2-5 .3-7.7.5 0 9.1-.6 18.1.3 27 .3 2.7 4.7 5 6.9 7.1h-25.1c.2-.5.2-1 .4-1 7.8-1.7 8.3-2.1 8.5-10.1.2-7.6 0-15.2 0-23.1h-29.2c0 9.3-.5 18.6.4 27.8.2 2.4 5 4.4 7.4 6.4h-25.6c0-.3 0-.9.1-.9 8.5-2.3 8.6-2.4 8.6-11.5v-22c-2.3 0-4.3.2-6.2-.1-.9-.2-1.7-1.4-2.5-2.1.8-.6 1.5-1.6 2.3-1.7 1.9-.3 3.9-.1 6.2-.1 0-8.9.2-17.4-.1-25.8-.2-5.2-4.5-5.9-8.5-7.3h26.5zm-64.4 93.2c-10.4 0-19.4 0-28.4-.1-.8 0-1.6-1.1-2.4-1.7.8-.6 1.6-1.9 2.4-1.8 5 .1 6.8-2.7 6.8-7.2v-76c0-.5-.3-.9-.6-2-3.1 0-6.4-.1-9.7 0-6.6.3-9.5 2.8-11.3 9.2-.3 1-1.3 1.8-1.9 2.7-.6-1-1.6-2-1.6-3-.2-5.3-.1-10.5-.1-15.5 20.9 1.7 41.2.8 62.5.7 0 4.5 0 10.4-.1 16.2 0 .5-.9 1.4-1.5 1.4s-1.8-.6-1.9-1.1c-2.5-13.4-12.7-10.4-22-10.7-.1 2-.3 3.6-.3 5.2v70.5c0 5.1.4 9.5 7.1 9.6.8.1 1.6 1.8 3 3.6z"/>
</svg>